<svg width="18" height="20" viewBox="0 0 18 20" version="1.1" xmlns="http://www.w3.org/2000/svg" xmlns:xlink="http://www.w3.org/1999/xlink">
<title>Vector</title>
<desc>Created using Figma</desc>
<g id="Canvas" transform="translate(567 115)">
<g id="Vector">
<use xlink:href="#path0_fill" transform="translate(-567 -115)" fill="#FFFFFF"/>
</g>
</g>
<defs>
<path id="path0_fill" d="M 17.9991 4.99978C 17.9991 2.24291 15.7562 0 12.9994 0C 11.2564 0 9.86653 0.517991 8.99957 1.41795C 8.13261 0.517991 6.74269 0 4.99978 0C 2.24291 0 0 2.24291 0 4.99978C 0 6.9187 0.689967 8.83458 1.8699 10.2445C 1.28094 12.8694 2.71885 18.1542 3.03886 19.2751C 3.15585 19.6851 3.52085 19.976 3.9488 19.999C 3.96679 19.999 3.98278 20 3.99979 20C 4.40679 20 4.77474 19.753 4.92876 19.372C 5.38273 18.2381 7.10366 15.0003 8.99957 15.0003C 10.8865 15.0003 12.6144 18.2381 13.0714 19.3731C 13.2304 19.7691 13.6374 20.0201 14.0503 19.998C 14.4773 19.977 14.8423 19.686 14.9593 19.2761C 15.2793 18.1541 16.7172 12.8704 16.1282 10.2455C 17.3092 8.83458 17.9991 6.91865 17.9991 4.99978ZM 14.2923 9.29356C 13.9873 9.59753 13.9123 10.0625 14.1043 10.4475C 14.4873 11.2115 14.2083 13.6913 13.6603 16.2273C 12.6494 14.6913 11.0675 12.9994 8.99952 12.9994C 6.93159 12.9994 5.34968 14.6903 4.33775 16.2282C 3.79079 13.6924 3.5118 11.2135 3.89475 10.4475C 4.08674 10.0615 4.01175 9.59757 3.70675 9.29356C 2.88178 8.4686 1.99983 6.90666 1.99983 4.99978C 1.99983 3.34587 3.34578 1.99992 4.99968 1.99992C 6.12065 1.99992 7.99954 2.26091 7.99954 3.99984C 7.99954 4.55181 8.44652 4.99978 8.99948 4.99978C 9.55243 4.99978 9.99941 4.55181 9.99941 3.99984C 9.99941 2.26091 11.8783 1.99992 12.9993 1.99992C 14.6532 1.99992 15.9991 3.34587 15.9991 4.99978C 15.9992 6.90666 15.1173 8.4686 14.2923 9.29356Z"/>
</defs>
</svg>
