<svg width="33" height="38" viewBox="0 0 33 38" version="1.1" xmlns="http://www.w3.org/2000/svg" xmlns:xlink="http://www.w3.org/1999/xlink">
<title>Vector</title>
<desc>Created using Figma</desc>
<g id="Canvas" transform="translate(179 490)">
<g id="Vector">
<use xlink:href="#path0_fill" transform="translate(-179 -490)" fill="#ED0000"/>
</g>
</g>
<defs>
<path id="path0_fill" d="M 2.14122 16.5232C 3.28756 18.5043 4.40406 20.7922 4.37304 25.0126C 4.36953 30.9576 5.46731 34.056 6.39187 35.6131C 7.41123 37.309 7.99289 38 9.66178 38C 11.2207 38 12.1417 36.6467 12.2435 35.3303C 12.3132 34.6258 12.326 33.8112 12.3395 32.9504C 12.3717 30.9717 12.4109 28.5092 13.1511 26.007L 13.1745 25.9291C 13.4841 24.9201 13.8358 23.7764 14.5134 22.7528C 14.9207 22.1373 15.7902 21.5154 16.6633 21.5154C 17.3638 21.5154 17.9717 21.9224 18.4709 22.7276C 19.1251 23.7823 19.5189 24.926 19.8454 25.9988C 20.5892 28.501 20.9104 31.4021 20.7056 33.7556C 20.5734 35.2699 20.856 36.4195 21.5454 37.1731C 22.2481 37.9409 23.096 38 23.3395 38L 23.3406 38C 24.92 38 25.5965 37.2967 26.6071 35.6096C 27.5304 34.0589 28.6294 30.9611 28.6253 25.0074C 28.5966 20.7963 29.7137 18.5055 30.8706 16.5033L 31.0245 16.2246C 32.0655 14.3465 32.9637 12.7244 33 8.75058C 33 8.62117 32.9971 8.48999 32.9947 8.35238L 32.9901 8.10291C 32.8847 5.2856 31.8472 3.29047 29.7143 1.81594C 27.9787 0.644743 25.5397 0 22.8468 0L 22.7643 0C 20.5869 0 18.3082 0.444469 16.675 1.18408L 16.4989 1.26196L 16.3344 1.18876C 15.0441 0.601409 13.339 0.197932 11.532 0.0527039C 11.501 0.0503615 11.4705 0.0491902 11.4395 0.0497758L 8.49203 0.0884252C 8.45868 0.0884252 8.4265 0.0907677 8.39373 0.0942813C 6.38251 0.321493 4.61647 0.917631 3.27703 1.82355C 1.1517 3.29106 0.113613 5.28619 0.00886809 8.12985L 0.0041871 8.4004C 0.00184643 8.52279 -0.000494221 8.6399 9.09458e-05 8.75937C 0.0334455 12.7157 0.931677 14.3372 1.97093 16.2146L 2.14122 16.5232ZM 1.99259 8.43904L 1.99668 8.17611C 2.07802 5.98246 2.79836 4.57293 4.39821 3.46791C 5.36256 2.81497 6.6511 2.36113 8.14093 2.13802L 12.0961 6.21436L 7.59146 6.21436C 7.19823 6.21436 6.84186 6.44626 6.6827 6.8064C 6.52295 7.16596 6.59024 7.58583 6.85357 7.87804L 12.3255 13.9337C 12.5221 14.151 12.7918 14.2622 13.0639 14.2622C 13.3015 14.2622 13.5403 14.1773 13.7304 14.0051C 14.1383 13.6368 14.1699 13.0067 13.8013 12.5997L 9.83324 8.20656L 14.449 8.20656C 14.8487 8.20656 15.2098 7.96764 15.3648 7.5993C 15.5199 7.23096 15.4409 6.80464 15.1624 6.5177L 10.8274 2.04901L 11.4179 2.04139C 12.9615 2.16964 14.4508 2.51924 15.5193 3.00529L 16.0647 3.24714L 19.9859 5.32952C 20.1345 5.40858 20.2937 5.44547 20.4511 5.44547C 20.8075 5.44547 21.1515 5.2534 21.3306 4.91726C 21.5881 4.43122 21.4032 3.82864 20.9186 3.57097L 18.9103 2.5046C 20.0889 2.18135 21.4588 1.99162 22.7643 1.99162L 22.8468 1.99162C 25.1143 1.99162 27.2127 2.52978 28.5931 3.46147C 30.2 4.57176 30.9203 5.98305 31.0011 8.15444L 31.0052 8.39161C 31.0075 8.51576 31.0098 8.63463 31.0104 8.74297C 30.9782 12.2021 30.2679 13.4846 29.2848 15.2595L 29.1385 15.5248C 27.9108 17.6499 26.6035 20.312 26.6357 25.015C 26.6404 30.8001 25.5491 33.4979 24.8995 34.5895C 24.0528 36.0019 23.8714 36.0101 23.3488 36.0101C 23.3167 36.0078 23.1475 35.9861 22.9983 35.8134C 22.8374 35.6272 22.5829 35.1329 22.6876 33.9295C 22.9176 31.3013 22.5764 28.2041 21.7507 25.4261C 21.3833 24.218 20.9362 22.9267 20.1614 21.6782C 19.3001 20.2898 18.0578 19.5256 16.6633 19.5256C 15.0067 19.5256 13.5567 20.5937 12.855 21.6542C 12.0177 22.9179 11.6045 24.2654 11.2727 25.3464L 11.2458 25.4343C 10.4266 28.2076 10.3839 30.82 10.3511 32.9199C 10.3377 33.7755 10.3248 34.5145 10.2622 35.1569C 10.2622 35.1663 10.1814 36.0101 9.66237 36.0101C 9.03331 36.0101 8.95256 36.0101 8.09997 34.593C 7.44985 33.4985 6.3591 30.7983 6.36378 25.022C 6.39831 20.3073 5.09046 17.6487 3.87331 15.5447L 3.71122 15.2507C 2.72814 13.4764 2.01833 12.1939 1.98966 8.75117C 1.98849 8.65162 1.99024 8.54797 1.99259 8.43904Z"/>
</defs>
</svg>
