<svg width="30" height="34" viewBox="0 0 30 34" version="1.1" xmlns="http://www.w3.org/2000/svg" xmlns:xlink="http://www.w3.org/1999/xlink">
<title>Vector</title>
<desc>Created using Figma</desc>
<g id="Canvas" transform="translate(-34 298)">
<g id="Vector">
<use xlink:href="#path0_fill" transform="translate(34 -298)" fill="#FFFFFF"/>
<use xlink:href="#path1_fill" transform="translate(34 -298)" fill="#FFFFFF"/>
</g>
</g>
<defs>
<path id="path0_fill" d="M 14.8515 7.77683C 15.3947 7.77683 15.8351 7.3377 15.8351 6.79601C 15.8351 6.25431 15.3947 5.81519 14.8515 5.81519C 14.3082 5.81519 13.8679 6.25431 13.8679 6.79601C 13.8679 7.3377 14.3082 7.77683 14.8515 7.77683Z"/>
<path id="path1_fill" d="M 27.1453 25.288L 19.8157 21.9778C 21.7789 20.5145 23.0747 18.2075 23.1565 15.6005C 23.5942 15.4444 23.9941 15.1899 24.3278 14.8494C 24.8975 14.2684 25.2112 13.5007 25.2112 12.688C 25.2112 11.8754 24.8975 11.1077 24.3278 10.5267C 23.9952 10.1873 23.5967 9.93338 23.1607 9.77712L 23.1607 5.6011L 23.1396 5.6011L 23.1396 5.05006C 23.1396 2.26545 20.8676 0 18.0751 0L 11.607 0C 8.81444 0 6.54252 2.26545 6.54252 5.05006L 6.54265 9.77719C 6.10651 9.93344 5.70814 10.1873 5.37549 10.5267C 4.80583 11.1078 4.49216 11.8754 4.49216 12.6881C 4.49216 13.5008 4.80583 14.2684 5.37549 14.8495C 5.7092 15.19 6.10911 15.4444 6.54678 15.6006C 6.63016 18.2574 7.97413 20.6027 10.0004 22.061L 2.8547 25.2881C 1.12054 26.0714 0 27.804 0 29.7023L 0 34L 1.99788 34L 1.99788 29.7022C 1.99788 28.5843 2.65778 27.564 3.67896 27.1027L 6.51322 25.8227L 5.50322 30.6614L 9.88989 34L 14.9755 34L 12.8737 28.7168L 17.1242 28.7168L 15.0224 34L 20.108 34L 24.4946 30.6615L 23.4845 25.8217L 26.321 27.1028C 27.3422 27.564 28.0021 28.5844 28.0021 29.7023L 28.0021 34L 30 34L 30 29.7022C 30 27.8039 28.8795 26.0713 27.1453 25.288ZM 21.1627 8.19334L 21.1627 9.09653C 20.3877 8.69158 19.8943 8.10714 19.5887 7.59329L 21.1417 7.59329L 21.1417 8.19334L 21.1627 8.19334ZM 11.607 1.99219L 18.0751 1.99219C 19.766 1.99219 21.1417 3.36394 21.1417 5.05006L 21.1417 5.6011L 19.0083 5.6011C 18.4871 3.80176 16.8216 2.48154 14.8516 2.48154C 12.8815 2.48154 11.216 3.80169 10.6948 5.6011L 8.54046 5.6011L 8.54046 5.05006C 8.54046 3.36394 9.91607 1.99219 11.607 1.99219ZM 17.1776 6.91482C 17.1154 8.14048 16.0959 9.11864 14.8516 9.11864C 13.5673 9.11864 12.5224 8.07686 12.5224 6.79622C 12.5224 5.51557 13.5673 4.47372 14.8516 4.47372C 16.1359 4.47372 17.1806 5.51557 17.1806 6.79622C 17.1806 6.82377 17.1795 6.85107 17.1786 6.87843L 17.1703 6.88002C 17.1714 6.88613 17.174 6.89828 17.1776 6.91482ZM 10.072 7.59329C 9.76216 8.09253 9.27628 8.66847 8.54053 9.09141L 8.54053 7.59329L 10.072 7.59329ZM 8.54053 15.3381L 8.54053 13.8118L 7.5659 13.7881C 6.97266 13.7737 6.49004 13.2803 6.49004 12.6882C 6.49004 12.0961 6.97266 11.6026 7.5659 11.5882L 8.54053 11.5646L 8.54053 11.2822C 9.8237 10.824 10.7135 10.0484 11.3189 9.28313C 12.1033 10.3877 13.394 11.1109 14.8516 11.1109C 16.293 11.1109 17.5712 10.4037 18.358 9.31979C 18.9621 10.0819 19.8559 10.8321 21.1627 11.254L 21.1627 11.5645L 22.1374 11.5882C 22.7306 11.6026 23.2132 12.096 23.2132 12.6881C 23.2132 13.2802 22.7306 13.7737 22.1374 13.7881L 21.1627 13.8117L 21.1627 15.3381C 21.1627 18.8083 18.3314 21.6315 14.8513 21.6315C 11.3715 21.6316 8.54053 18.8083 8.54053 15.3381ZM 10.5652 32.0078L 7.71554 29.8391L 8.76622 24.8053L 9.10693 24.6514L 12.0336 32.0078L 10.5652 32.0078ZM 12.0811 26.7246L 10.9289 23.8285L 12.2813 23.2177C 13.0909 23.481 13.9546 23.6238 14.8512 23.6238C 15.862 23.6238 16.8309 23.4423 17.7277 23.1113L 17.6861 23.203L 19.0693 23.8277L 17.9168 26.7246L 12.0811 26.7246ZM 19.4326 32.0078L 17.9643 32.0078L 20.8908 24.6514L 21.2315 24.8053L 22.2822 29.8391L 19.4326 32.0078Z"/>
</defs>
</svg>
