<svg width="25" height="38" viewBox="0 0 25 38" version="1.1" xmlns="http://www.w3.org/2000/svg" xmlns:xlink="http://www.w3.org/1999/xlink">
<title>Vector</title>
<desc>Created using Figma</desc>
<g id="Canvas" transform="translate(352 -2093)">
<g id="Vector">
<use xlink:href="#path0_fill" transform="translate(-352 2093)" fill="#7ED321"/>
<use xlink:href="#path1_fill" transform="translate(-352 2093)" fill="#7ED321"/>
<use xlink:href="#path2_fill" transform="translate(-352 2093)" fill="#7ED321"/>
</g>
</g>
<defs>
<path id="path0_fill" d="M 17.5124 30.198L 18.3888 30.3937L 18.8038 28.5331L 17.5124 28.2449L 17.5124 26.3636L 15.6059 26.3636L 15.6059 27.8199L 8.66563 26.2728L 8.66563 24.391L 6.75913 24.391L 6.75913 25.8478L 5.8827 25.6526L 5.46775 27.5137L 6.75913 27.8002L 6.75913 27.8025L 17.5124 30.1991L 17.5124 30.198Z"/>
<path id="path1_fill" d="M 6.75913 29.5273L 6.75913 34.1141L 7.35408 34.1141L 11.508 37.7622C 11.6886 37.9198 11.9134 38 12.1377 38C 12.362 38 12.5869 37.9198 12.7663 37.7622L 16.9191 34.1141L 17.5129 34.1141L 17.5129 31.4977L 15.6064 31.4977L 15.6064 32.2076L 8.66564 32.2076L 8.66564 29.5278L 6.75913 29.5273ZM 14.0296 34.1141L 12.1372 35.7778L 10.2424 34.1141L 14.0296 34.1141Z"/>
<path id="path2_fill" d="M 3.19059 16.2328L 3.39751 16.9062L 4.72141 16.9062L 4.72141 20.2785L 6.75856 20.2785L 6.75856 20.7069L 5.88213 20.5118L 5.46719 22.3723L 6.75856 22.6605L 6.75856 22.6661L 17.5124 25.0621L 17.5124 25.0577L 18.3888 25.2528L 18.8038 23.3923L 17.5124 23.104L 17.5124 20.2785L 19.5495 20.2785L 19.5495 16.9062L 20.8504 16.9057L 21.0652 16.2479C 21.0708 16.23 21.6613 14.4238 22.3661 12.8953C 23.2173 11.0493 24.1083 8.85852 24.2676 6.60548C 24.2754 6.48212 24.2721 6.35708 24.2653 6.22642L 24.2597 6.06549C 24.1795 3.9532 23.399 2.45659 21.7925 1.34913C 20.5033 0.478869 18.6972 0 16.71 0L 16.6466 0C 15.0435 0 13.3635 0.32747 12.1585 0.874189L 12.131 0.885964L 12.1102 0.876432C 11.1564 0.442982 9.89813 0.14467 8.5675 0.03813L 8.52264 0.0347653L 6.34979 0.0633632L 6.25278 0.0695312C 4.76346 0.239995 3.45358 0.682417 2.45771 1.35474C 0.857368 2.45771 0.0779424 3.95488 0 6.10474C 0 6.7109 0.133455 8.99029 1.8751 12.856C 2.7364 14.7625 3.18611 16.2182 3.19059 16.2328ZM 15.6059 22.679L 8.66563 21.1314L 8.66563 20.2785L 15.6059 20.2785L 15.6059 22.679ZM 17.643 18.3714L 6.62903 18.3714L 6.62903 16.9068L 17.6436 16.9068L 17.643 18.3714ZM 3.53264 2.92929C 4.25768 2.43977 5.25635 2.10837 6.4238 1.96931L 8.4576 1.94239C 9.54318 2.03379 10.5845 2.27715 11.328 2.61528L 11.7127 2.78686L 15.8599 4.97093C 16.0012 5.04551 16.1532 5.08028 16.3034 5.08028C 16.6449 5.08028 16.9769 4.89523 17.1468 4.57113C 17.3924 4.10516 17.2135 3.52872 16.7481 3.28368L 14.541 2.12127C 15.2145 1.98445 15.9429 1.90651 16.646 1.90651L 16.7094 1.90651C 18.2985 1.90651 19.7626 2.27996 20.7187 2.92424C 21.8082 3.67619 22.2977 4.63673 22.3527 6.11203C 22.3538 6.18325 22.3571 6.25222 22.3605 6.32007C 22.3639 6.37558 22.3684 6.42829 22.365 6.47651C 22.2568 8.02134 21.7387 9.70243 20.6346 12.0973C 20.1484 13.1532 19.7234 14.3005 19.4772 14.9997L 4.78869 14.9997C 4.5644 14.3582 4.17188 13.3108 3.61339 12.0727C 1.95305 8.3875 1.90707 6.32848 1.90707 6.13558C 1.9609 4.63673 2.4493 3.67619 3.53264 2.92929Z"/>
</defs>
</svg>
