<svg width="38" height="21" viewBox="0 0 38 21" version="1.1" xmlns="http://www.w3.org/2000/svg" xmlns:xlink="http://www.w3.org/1999/xlink">
<title>Vector</title>
<desc>Created using Figma</desc>
<g id="Canvas" transform="translate(-467 -3184)">
<g id="Vector">
<use xlink:href="#path0_fill" transform="translate(467 3184)" fill="#497393"/>
</g>
</g>
<defs>
<path id="path0_fill" d="M 37.1493 7.02541L 36.108 7.02541C 36.23 6.48472 36.3071 5.8365 36.3151 5.01108C 36.3151 4.94394 36.3131 4.87578 36.3111 4.80612L 36.3071 4.65113C 36.2485 3.0538 35.6349 1.86944 34.4256 1.02685C 33.4518 0.364497 32.0929 -2.85022e-07 30.5555 -2.85022e-07C 29.3757 -2.85022e-07 28.1369 0.24081 27.2317 0.643171C 26.5195 0.325119 25.5947 0.107532 24.6205 0.029281C 24.594 0.0272616 24.568 0.0262516 24.5415 0.0262516L 22.9745 0.0464459C 22.946 0.0469507 22.918 0.0489699 22.8895 0.051999C 21.7692 0.181239 20.7825 0.518475 20.0283 1.0319C 19.6132 1.32067 19.2741 1.65336 18.9975 2.02897C 18.7209 1.65336 18.3793 1.31815 17.9612 1.02685C 16.9865 0.364497 15.6286 -2.85022e-07 14.0902 -2.85022e-07C 12.9104 -2.85022e-07 11.6716 0.24081 10.7668 0.643171C 10.0536 0.325119 9.1299 0.107532 8.15464 0.029281C 8.12914 0.0272616 8.10363 0.0262516 8.07662 0.0262516L 6.51071 0.0469504C 6.48121 0.0474553 6.4532 0.0494745 6.42469 0.0525035C 5.3054 0.181744 4.31764 0.51898 3.56344 1.03241C 2.36012 1.87045 1.74746 3.05481 1.69095 4.68344L 1.68494 5.01664C 1.69095 5.83903 1.76697 6.48573 1.889 7.02541L 0.849724 7.02541C 0.3806 7.02541 -1.10655e-07 7.4101 -1.10655e-07 7.88415C -1.10655e-07 8.35769 0.3811 8.74238 0.849724 8.74238L 2.54167 8.74238C 2.61569 8.88324 2.69121 9.02156 2.76823 9.16141L 2.86375 9.33709C 3.45191 10.3574 4.02406 11.5367 4.00755 13.7181C 4.00355 16.9779 4.61221 18.6944 5.12385 19.5622C 5.65349 20.4558 6.05259 20.999 7.13438 20.999C 8.16315 20.999 8.76581 20.1226 8.82632 19.2785C 8.86533 18.8852 8.87233 18.4404 8.87984 17.9699C 8.89634 16.9315 8.91685 15.6401 9.30495 14.3199C 9.34896 14.1669 9.61953 13.4041 10.6278 13.4041L 10.7293 13.4061C 11.8741 13.4586 12.2112 14.2856 12.2337 14.3411C 12.6178 15.6406 12.7849 17.1475 12.6793 18.3718C 12.6003 19.278 12.7779 19.9772 13.208 20.4502C 13.6701 20.9591 14.2357 20.9995 14.3988 20.9995L 14.3998 20.9995C 15.3815 20.9995 15.8287 20.536 16.4103 19.5607C 16.9205 18.6949 17.5286 16.9784 17.5266 13.7146C 17.5121 11.5382 18.0843 10.3584 18.6804 9.31993L 18.7664 9.16191C 18.8425 9.02308 18.919 8.88374 18.992 8.74289L 19.0075 8.74289C 19.0815 8.88374 19.157 9.02207 19.2331 9.16191L 19.3296 9.3376C 19.9167 10.3579 20.4889 11.5372 20.4724 13.7186C 20.4684 16.9784 21.077 18.6949 21.5887 19.5627C 22.1183 20.4563 22.5174 20.9995 23.5997 20.9995C 24.6285 20.9995 25.2301 20.1231 25.2917 19.279C 25.3307 18.8857 25.3377 18.4409 25.3442 17.9704C 25.3607 16.932 25.3812 15.6406 25.7703 14.3204C 25.8143 14.1674 26.0839 13.4046 27.0931 13.4046L 27.1947 13.4066C 28.3395 13.4591 28.6765 14.2861 28.698 14.3416C 29.0832 15.6411 29.2492 17.148 29.1437 18.3723C 29.0646 19.2785 29.2422 19.9777 29.6723 20.4507C 30.1344 20.9596 30.7011 21 30.8631 21L 30.8641 21C 31.8459 21 32.294 20.5366 32.8746 19.5612C 33.3853 18.6954 33.9929 16.9789 33.9909 13.7151C 33.9774 11.5387 34.5486 10.3589 35.1457 9.32043L 35.2318 9.16242C 35.3078 9.02358 35.3833 8.88425 35.4573 8.7434L 37.1503 8.7434C 37.6194 8.7434 38 8.3587 38 7.88516C 37.9995 7.4101 37.6184 7.02541 37.1493 7.02541ZM 19.8557 4.71423C 19.9027 3.38044 20.4574 2.81905 20.987 2.45051C 21.4997 2.10116 22.2088 1.86388 23.0411 1.76292L 24.523 1.74373C 25.3017 1.81088 26.0479 1.98606 26.579 2.2299L 26.8586 2.3556L 28.9306 3.46626C 29.0576 3.53441 29.1942 3.56672 29.3282 3.56672C 29.6328 3.56672 29.9279 3.40113 30.0804 3.11085C 30.3 2.69233 30.1429 2.17285 29.7288 1.95021L 29.4503 1.80078C 29.8243 1.74676 30.215 1.71647 30.6031 1.71647C 31.7429 1.71647 32.7901 1.98404 33.4683 2.44546C 34.0044 2.81854 34.5596 3.38044 34.6081 4.69455L 34.6151 5.00301C 34.6061 5.91627 34.5096 6.52158 34.3485 7.02541L 30.3025 7.02541L 30.3025 5.6588C 30.3025 5.18475 29.9214 4.80056 29.4517 4.80056L 25.0436 4.80056C 24.574 4.80056 24.1929 5.18475 24.1929 5.6588L 24.1929 7.02541L 20.1158 7.02541C 19.9548 6.52309 19.8577 5.92031 19.8522 5.01108L 19.8557 4.71423ZM 25.8928 6.51754L 28.6015 6.51754L 28.6015 9.25177L 25.8928 9.25177L 25.8928 6.51754ZM 3.38589 5.01108L 3.39089 4.71423C 3.4379 3.38044 3.99255 2.81905 4.52219 2.45051C 5.03483 2.10116 5.74501 1.86388 6.57623 1.76292L 8.05912 1.74373C 8.83782 1.81088 9.58302 1.98606 10.1152 2.2299L 10.3947 2.3556L 12.4658 3.46626C 12.5938 3.53441 12.7293 3.56672 12.8644 3.56672C 13.169 3.56672 13.463 3.40113 13.6156 3.11085C 13.8361 2.69233 13.6791 2.17285 13.264 1.95021L 12.9854 1.80078C 13.3595 1.74676 13.7501 1.71647 14.1382 1.71647C 15.278 1.71647 16.3253 1.98404 17.004 2.44546C 17.5401 2.81854 18.0943 3.38044 18.1428 4.69455L 18.1498 5.00301C 18.1418 5.91627 18.0452 6.52158 17.8842 7.02541L 13.8381 7.02541L 13.8381 5.6588C 13.8381 5.18475 13.457 4.80056 12.9884 4.80056L 8.57926 4.80056C 8.11013 4.80056 7.72953 5.18475 7.72953 5.6588L 7.72953 7.02541L 3.65046 7.02541C 3.48842 6.52309 3.39239 5.92031 3.38589 5.01108ZM 9.42948 6.51754L 12.1372 6.51754L 12.1372 9.25177L 9.42948 9.25177L 9.42948 6.51754ZM 15.8257 13.7201C 15.8277 16.7391 15.2765 18.1259 14.9504 18.6797C 14.6594 19.1679 14.5488 19.2633 14.5393 19.2734C 14.5363 19.2744 14.5158 19.2795 14.4553 19.2815C 14.4248 19.2371 14.3273 19.0478 14.3733 18.5212C 14.4983 17.0698 14.3118 15.367 13.8546 13.8236C 13.8271 13.7408 13.159 11.7982 10.8068 11.6907C 10.7463 11.6887 10.6868 11.6866 10.6283 11.6866C 8.72229 11.6866 7.85407 13.1224 7.67052 13.8499C 7.2214 15.376 7.19889 16.7992 7.18039 17.9417C 7.17339 18.394 7.16789 18.7858 7.13338 19.1301C 7.13038 19.1785 7.10987 19.2416 7.09037 19.281C 7.04836 19.281 7.02085 19.279 7.00534 19.279C 6.99634 19.279 6.99284 19.28 6.99184 19.281C 6.94183 19.2386 6.8308 19.0977 6.58523 18.6823C 6.25615 18.1249 5.705 16.7386 5.709 13.7257C 5.72651 11.2979 5.10634 9.86162 4.48418 8.74238L 7.72903 8.74238L 7.72903 10.109C 7.72903 10.583 8.11013 10.9677 8.57876 10.9677L 12.9879 10.9677C 13.457 10.9677 13.8376 10.583 13.8376 10.109L 13.8376 8.74238L 17.0505 8.74238C 16.4243 9.87374 15.8097 11.3085 15.8257 13.7201ZM 32.29 13.7201C 32.292 16.7391 31.7418 18.1259 31.4148 18.6797C 31.1247 19.1679 31.0142 19.2633 31.0037 19.2734C 31.0017 19.2744 30.9811 19.2795 30.9196 19.2815C 30.8891 19.2371 30.7916 19.0478 30.8376 18.5212C 30.9626 17.0698 30.7771 15.367 30.32 13.8236C 30.2925 13.7408 29.6243 11.7982 27.2722 11.6907C 27.2107 11.6887 27.1511 11.6866 27.0936 11.6866C 25.1876 11.6866 24.3194 13.1224 24.1348 13.8499C 23.6867 15.376 23.6632 16.7992 23.6452 17.9417C 23.6372 18.394 23.6317 18.7858 23.5982 19.1301C 23.5942 19.1785 23.5747 19.2416 23.5552 19.281C 23.5132 19.281 23.4847 19.279 23.4702 19.279C 23.4612 19.279 23.4567 19.28 23.4567 19.281C 23.4057 19.2386 23.2956 19.0977 23.0496 18.6823C 22.7215 18.1249 22.1693 16.7386 22.1733 13.7257C 22.1918 11.2979 21.5717 9.86162 20.9495 8.74238L 24.1924 8.74238L 24.1924 10.109C 24.1924 10.583 24.5735 10.9677 25.0431 10.9677L 29.4513 10.9677C 29.9209 10.9677 30.302 10.583 30.302 10.109L 30.302 8.74238L 33.5158 8.74238C 32.8897 9.87374 32.275 11.3085 32.29 13.7201Z"/>
</defs>
</svg>
