<svg width="34" height="29" viewBox="0 0 34 29" version="1.1" xmlns="http://www.w3.org/2000/svg" xmlns:xlink="http://www.w3.org/1999/xlink">
<title>command</title>
<desc>Created using Figma</desc>
<g id="Canvas" transform="translate(179 -1741)">
<g id="command">
<g id="XMLID 1057">
<g id="Group">
<g id="Group">
<g id="Vector">
<use xlink:href="#path0_fill" transform="translate(-155.894 1749.6)" fill="#497393"/>
</g>
<g id="Vector">
<use xlink:href="#path1_fill" transform="translate(-179 1758.12)" fill="#497393"/>
</g>
<g id="Vector">
<use xlink:href="#path0_fill" transform="translate(-176.433 1749.6)" fill="#497393"/>
</g>
<g id="Vector">
<use xlink:href="#path2_fill" transform="translate(-168.034 1741)" fill="#497393"/>
</g>
</g>
</g>
</g>
</g>
</g>
<defs>
<path id="path0_fill" d="M 4.16327 8.3832C 6.45889 8.3832 8.32653 6.50285 8.32653 4.1916C 8.32653 1.88035 6.45889 -9.38061e-08 4.16327 -9.38061e-08C 1.86764 -9.38061e-08 0 1.88035 0 4.1916C 0 6.50285 1.86764 8.3832 4.16327 8.3832ZM 4.16327 2.0958C 5.31108 2.0958 6.2449 3.03598 6.2449 4.1916C 6.2449 5.34722 5.31108 6.2874 4.16327 6.2874C 3.01545 6.2874 2.08163 5.34722 2.08163 4.1916C 2.08163 3.03598 3.01545 2.0958 4.16327 2.0958Z"/>
<path id="path1_fill" d="M 27.2694 1.95608C 25.9494 1.95608 24.6769 2.34373 23.5895 3.06085C 21.9974 1.18867 19.6342 9.72173e-07 17 9.72173e-07C 14.3658 9.72173e-07 12.0026 1.18867 10.4105 3.06085C 9.32301 2.34366 8.05064 1.95608 6.73061 1.95608C 3.01934 1.95608 0 4.99597 0 8.7325L 0 9.7804L 15.9592 9.7804L 15.9592 11.8762L 18.0408 11.8762L 18.0408 9.7804L 34 9.7804L 34 8.7325C 34 4.99597 30.9807 1.95608 27.2694 1.95608ZM 8.38919 7.6846L 2.19911 7.6846C 2.67289 5.60647 4.52485 4.05188 6.73061 4.05188C 7.63543 4.05188 8.50791 4.31553 9.25535 4.80392C 8.81072 5.68884 8.51152 6.65968 8.38919 7.6846ZM 15.9592 7.6846L 10.4906 7.6846C 10.9371 4.86275 13.1563 2.62834 15.9592 2.17879L 15.9592 7.6846ZM 18.0408 7.6846L 18.0408 2.17879C 20.8436 2.62834 23.0629 4.86268 23.5094 7.6846L 18.0408 7.6846ZM 25.6108 7.6846C 25.4885 6.65961 25.1893 5.68877 24.7446 4.80392C 25.4921 4.3156 26.3646 4.05188 27.2694 4.05188C 29.4752 4.05188 31.3271 5.60647 31.8009 7.6846L 25.6108 7.6846Z"/>
<path id="path2_fill" d="M 0.8296 9.7885C 0.8296 12.6776 3.16415 15.028 6.03368 15.028C 8.90321 15.028 11.2378 12.6776 11.2378 9.7885L 11.2378 7.71303L 12.0415 0.357404L 10.4988 0.357404L 8.37892 2.1199L 6.02265 9.38061e-08L 3.66638 2.11983L 1.54679 0.357404L 4.4045e-07 0.357404L 0.8296 7.71513L 0.8296 9.7885ZM 9.15613 9.7885C 9.15613 11.5219 7.7554 12.9322 6.03368 12.9322C 4.31196 12.9322 2.91123 11.5219 2.91123 9.7885L 2.91123 8.7406L 9.15613 8.7406L 9.15613 9.7885ZM 3.71988 4.88238L 6.02265 2.81061L 8.32542 4.88231L 9.56552 3.85131L 9.26028 6.6448L 2.80396 6.6448L 2.48991 3.85969L 3.71988 4.88238Z"/>
</defs>
</svg>
