<svg width="26" height="38" viewBox="0 0 26 38" version="1.1" xmlns="http://www.w3.org/2000/svg" xmlns:xlink="http://www.w3.org/1999/xlink">
<title>Vector</title>
<desc>Created using Figma</desc>
<g id="Canvas" transform="translate(110 -3167)">
<g id="Vector">
<use xlink:href="#path0_fill" transform="translate(-110 3167)" fill="#497393"/>
<use xlink:href="#path1_fill" transform="translate(-110 3167)" fill="#497393"/>
</g>
</g>
<defs>
<path id="path0_fill" d="M 1.34192 12.9628C 1.4651 13.2535 1.61907 13.5275 1.76782 13.7937C 1.89726 14.0239 2.03087 14.2634 2.141 14.5072C 2.28453 14.825 2.60083 15.0302 2.95052 15.0302L 7.34939 15.0302C 8.04879 15.0302 9.33745 14.658 9.73359 13.2634C 9.75604 13.1841 9.76804 13.1021 9.76804 13.0207L 9.76804 11.5243C 9.76804 11.4914 9.76595 11.4601 9.76282 11.4283C 9.76178 11.4273 9.76804 11.2634 9.82598 11.1992C 9.86042 11.1595 9.97369 11.1167 10.183 11.1167L 15.8162 11.1167C 16.024 11.1167 16.1362 11.1585 16.1732 11.1971C 16.2212 11.2472 16.2416 11.3777 16.2385 11.4283C 16.2353 11.4601 16.2333 11.4914 16.2333 11.5243L 16.2333 13.0207C 16.2333 13.1021 16.2442 13.1841 16.2667 13.2634C 16.6644 14.658 17.952 15.0302 18.6509 15.0302L 22.7507 15.0302C 23.0435 15.0302 24.0586 14.8825 24.8149 12.9863C 25.7356 10.6762 25.8191 9.83744 25.9934 6.99602C 26.0018 6.86971 25.9987 6.73923 25.9934 6.60248L 25.9882 6.4292C 25.9047 4.19375 25.079 2.60863 23.3827 1.43532C 22.0095 0.509931 20.083 0 17.9593 0L 17.8899 0C 16.1826 0 14.3861 0.349697 13.0907 0.932699L 12.9999 0.97341L 12.9174 0.936874C 11.9043 0.473917 10.5593 0.156059 9.13024 0.0396672C 9.10153 0.0375794 9.07335 0.0365358 9.04568 0.0365358L 6.74395 0.0683738C 6.7142 0.0683738 6.68602 0.0704616 6.65627 0.0735933C 5.06906 0.253139 3.67236 0.724968 2.61127 1.44367C 0.921239 2.60759 0.0944939 4.19218 0.0109842 6.44277L 0.00576576 6.5816C -0.000497466 6.73244 -0.00362965 6.87545 0.00680905 7.00959C 0.258382 10.1464 0.607035 11.232 1.34192 12.9628ZM 1.78035 6.65206L 1.78556 6.49392C 1.84768 4.82112 2.39623 3.74749 3.61338 2.90875C 4.4229 2.36123 5.52888 1.99223 6.81337 1.84243L 9.02846 1.81268C 10.2253 1.91341 11.3719 2.18169 12.1898 2.55487L 12.6121 2.74225L 15.6711 4.36494C 16.1043 4.59407 16.6404 4.42914 16.8711 3.99698C 16.9405 3.86441 16.9739 3.72296 16.9739 3.58204C 16.9739 3.26418 16.8027 2.95624 16.5021 2.79705L 15.1842 2.09766C 16.0313 1.89149 16.9833 1.77354 17.892 1.77354L 17.9614 1.77354C 19.7099 1.77354 21.3242 2.18639 22.3837 2.90092C 23.6061 3.74593 24.1547 4.82059 24.2168 6.472L 24.223 6.66877C 24.2251 6.74236 24.2293 6.8123 24.2251 6.8838C 24.0649 9.48722 24.0221 10.1877 23.1693 12.3286C 22.9192 12.9555 22.6964 13.1841 22.6077 13.2551L 18.6535 13.2551C 18.535 13.253 18.1623 13.2185 18.0084 12.872L 18.0084 11.5541C 18.0214 11.3239 18.0157 10.5927 17.4958 10.0138C 17.2208 9.70695 16.7066 9.34212 15.8167 9.34212L 10.1835 9.34212C 9.29465 9.34212 8.78054 9.70695 8.50548 10.0128C 7.98563 10.5927 7.98041 11.3239 7.99398 11.5541L 7.99398 12.8709C 7.83897 13.2185 7.46474 13.253 7.3447 13.2551L 3.49856 13.2551C 3.43645 13.1397 3.37434 13.0296 3.31588 12.9247C 3.18435 12.6914 3.06117 12.4701 2.97558 12.2681C 2.30489 10.6882 2.00791 9.75706 1.77774 6.86919C 1.77147 6.8029 1.77721 6.72931 1.78035 6.65206Z"/>
<path id="path1_fill" d="M 4.0873 29.8249C 4.01005 32.9278 4.94641 35.0986 5.51323 36.12C 6.24603 37.4259 6.70063 37.999 7.97415 37.999C 9.23306 37.999 9.89279 36.8878 9.97108 35.8684C 10.0181 35.3538 10.028 34.9081 10.0374 34.478C 10.0588 33.4597 10.0802 32.4972 10.6104 30.5796C 10.8255 29.8275 11.0703 28.9742 11.539 28.2148C 11.801 27.7925 12.3595 27.3786 12.8793 27.3771C 13.2801 27.3833 13.6408 27.6573 13.9508 28.1918C 14.383 28.9402 14.7155 29.7811 14.8867 30.5609C 15.0975 31.529 15.2301 32.6731 15.336 33.5928C 15.4002 34.1512 15.4514 34.5938 15.5083 34.9081C 15.8763 36.9165 16.8225 38 17.5266 38C 18.7328 38 19.2605 37.4201 19.9875 36.1184C 20.7673 34.7165 21.3007 32.3887 21.4124 29.8876C 21.5132 27.601 21.8112 26.7878 22.2893 25.65C 22.3023 25.6171 22.3148 25.5847 22.3237 25.5503C 23.2084 22.4583 23.0242 20.082 21.7773 18.4901C 20.6123 17.0025 18.5439 16.2666 15.787 16.3694C 15.2969 16.3877 14.9143 16.7985 14.9326 17.2891C 14.9498 17.7787 15.3606 18.1727 15.8512 18.1435C 17.3622 18.0866 19.369 18.2933 20.3795 19.5851C 21.2511 20.6973 21.3357 22.5231 20.6311 25.0132C 20.0877 26.3118 19.7495 27.305 19.6394 29.8093C 19.5413 31.9795 19.0695 34.1184 18.4374 35.2551C 18.1185 35.8251 17.9551 36.0605 17.8184 36.1576C 17.6545 35.918 17.4097 35.442 17.2536 34.5897C 17.2067 34.3329 17.1555 33.8965 17.0976 33.3897C 16.9864 32.4315 16.8497 31.2388 16.6184 30.1825C 16.4097 29.2284 16.0067 28.2069 15.4848 27.3024C 14.6387 25.8447 13.5041 25.6124 12.9028 25.604C 11.6512 25.5685 10.5541 26.4329 10.029 27.2821C 9.42983 28.2502 9.13807 29.2722 8.89015 30.1355C 8.30923 32.2394 8.2847 33.359 8.26122 34.4404C 8.25182 34.8595 8.24399 35.2541 8.20119 35.7197C 8.1871 35.9154 8.07593 36.2254 7.97259 36.2254C 7.64011 36.2254 7.60567 36.2254 7.06129 35.2572C 6.58424 34.3971 5.79298 32.5536 5.85927 29.8719L 5.86658 29.6088C 5.92242 27.4047 5.948 26.3896 5.38222 25.0247C 5.00173 23.8608 4.35349 20.5935 5.76845 18.9786C 6.68393 17.9337 8.40475 17.6419 10.8829 18.1101L 12.1115 18.5036L 12.1115 20.7323L 11.029 19.6498L 9.77431 20.9045L 12.372 23.5022C 12.5453 23.6755 12.7728 23.7621 12.9999 23.7621C 13.2269 23.7621 13.4534 23.6755 13.6267 23.5022L 16.2254 20.9045L 14.9707 19.6498L 13.8872 20.7323L 13.8872 13.9571L 12.1126 13.9571L 12.1126 16.6382L 11.3725 16.4018C 11.3391 16.3914 11.3051 16.3825 11.2707 16.3752C 8.10255 15.7666 5.80134 16.2478 4.43439 17.8074C 2.05227 20.5272 3.64105 25.4073 3.71046 25.614C 3.71777 25.6343 3.72456 25.6557 3.73395 25.6761C 4.16611 26.7069 4.14784 27.4266 4.09356 29.5608L 4.0873 29.8249Z"/>
</defs>
</svg>
