<svg width="38" height="38" viewBox="0 0 38 38" version="1.1" xmlns="http://www.w3.org/2000/svg" xmlns:xlink="http://www.w3.org/1999/xlink">
<title>noun_675646_cc</title>
<desc>Created using Figma</desc>
<g id="Canvas" transform="translate(-273 -3167)">
<g id="noun_675646_cc">
<g id="Group">
<g id="Vector">
<use xlink:href="#path0_fill" transform="translate(277.299 3173.87)" fill="#497393"/>
</g>
<g id="Vector">
<use xlink:href="#path1_fill" transform="translate(301.457 3167)" fill="#497393"/>
</g>
<g id="Vector">
<use xlink:href="#path2_fill" transform="translate(282.05 3178.03)" fill="#497393"/>
</g>
<g id="Vector">
<use xlink:href="#path3_fill" transform="translate(273 3168.42)" fill="#497393"/>
</g>
</g>
</g>
</g>
<defs>
<path id="path0_fill" d="M 0.0077837 6.73736L 0.00333527 6.95633C 0.00166739 7.05636 2.71466e-07 7.1514 2.71466e-07 7.24977C 0.0261305 10.4959 0.763336 11.8258 1.61729 13.3658L 1.75906 13.622C 2.68085 15.2131 3.57984 17.051 3.55593 20.4461C 3.55149 25.3011 4.45381 27.8425 5.21492 29.123C 6.05331 30.5168 6.56925 31.1276 7.98917 31.1276C 9.33905 31.1276 10.1357 29.965 10.2241 28.8362C 10.282 28.2577 10.292 27.5936 10.3036 26.89C 10.3292 25.2933 10.3615 23.3048 10.9575 21.2936L 10.9747 21.2358C 11.2238 20.4238 11.5056 19.5024 12.0477 18.6849C 12.3596 18.2169 13.0206 17.7418 13.6817 17.7418C 14.2009 17.7418 14.6557 18.0513 15.0343 18.661C 15.5614 19.5107 15.8766 20.4272 16.1368 21.2858C 16.7372 23.3015 16.9969 25.6362 16.8312 27.5313C 16.72 28.8012 16.9613 29.7704 17.5495 30.4112C 18.1577 31.0753 18.896 31.1276 19.1079 31.1276L 19.1084 31.1276C 20.4499 31.1276 21.0476 30.509 21.881 29.1197C 22.6399 27.8442 23.5444 25.3044 23.54 20.4405C 23.5172 17.0527 24.4162 15.2131 25.3491 13.602L 25.4753 13.3741C 26.3298 11.8336 27.067 10.5026 27.0965 7.24199C 27.0965 7.12917 27.0942 7.01302 27.092 6.89242L 27.0887 6.71124C 27.002 4.37654 26.1397 2.72151 24.3667 1.49886C 22.9345 0.532965 20.9242 -5.17285e-07 18.7053 -5.17285e-07L 18.6431 -5.17285e-07C 16.8557 -5.17285e-07 14.9815 0.365128 13.6327 0.97423L 13.5482 1.01147L 13.4693 0.976454C 12.4046 0.493507 11.0019 0.161723 9.52029 0.0433486C 9.49083 0.0411256 9.46247 0.0389031 9.43301 0.0405703L 7.03681 0.0722477C 7.00512 0.0722477 6.97399 0.0744708 6.94341 0.0778053C 5.2872 0.264537 3.82947 0.756376 2.72143 1.50497C 0.955699 2.72484 0.0939578 4.37876 0.0077837 6.73736ZM 3.78832 3.06608C 4.62783 2.49865 5.77533 2.11741 7.11075 1.9618L 9.4141 1.93123C 10.6495 2.03405 11.8403 2.31248 12.6954 2.70095L 13.1363 2.89713L 16.318 4.58494C 16.4593 4.65997 16.6105 4.69498 16.76 4.69498C 17.0986 4.69498 17.4261 4.51269 17.5962 4.19369C 17.8403 3.73242 17.6657 3.16055 17.2042 2.91602L 15.8805 2.21355C 16.7472 2.00793 17.7168 1.89011 18.6442 1.89011L 18.7065 1.89011C 20.525 1.89011 22.2029 2.31859 23.302 3.05996C 24.5685 3.9336 25.1367 5.04622 25.2006 6.76126L 25.2034 6.92965C 25.2056 7.03691 25.2073 7.14139 25.2079 7.23365C 25.1829 10.0068 24.6124 11.035 23.8241 12.4583L 23.7051 12.6733C 22.6977 14.4123 21.6258 16.5919 21.6514 20.4483C 21.6558 25.1094 20.7807 27.2757 20.2593 28.1504C 19.616 29.2241 19.4948 29.238 19.1234 29.238C 18.8638 29.2075 18.6264 28.7151 18.7159 27.6969C 18.9044 25.5445 18.6247 23.0109 17.9487 20.7423C 17.664 19.8036 17.2865 18.7027 16.6422 17.6662C 15.9166 16.4969 14.8659 15.8533 13.6833 15.8533C 12.2862 15.8533 11.0648 16.7509 10.4743 17.6412C 9.78048 18.6877 9.4419 19.7936 9.16948 20.6839L 9.14947 20.7478C 8.47675 23.0164 8.44284 25.1483 8.4156 26.86C 8.40392 27.5524 8.39447 28.1504 8.34332 28.6706C 8.34332 28.6773 8.27605 29.238 7.9914 29.238C 7.5394 29.238 7.49214 29.238 6.83944 28.1538C 6.31795 27.2757 5.44398 25.1071 5.44843 20.4538C 5.47511 16.5886 4.40322 14.4112 3.40582 12.6917L 3.27239 12.4494C 2.48404 11.0272 1.91418 10.0002 1.89249 7.24199L 1.89917 6.78071C 1.96088 5.04733 2.52907 3.93471 3.78832 3.06608Z"/>
<path id="path1_fill" d="M 0.938463 6.75848C 1.23979 6.76404 3.82669 6.92576 3.82669 10.6843C 3.82669 11.2056 4.24977 11.6285 4.77126 11.6285C 5.29331 11.6285 5.71696 11.2056 5.71696 10.6843C 5.71696 6.92132 8.30996 6.76348 8.5974 6.75848C 9.11889 6.75848 9.54253 6.335 9.54253 5.81371C 9.54253 5.29186 9.11889 4.86893 8.5974 4.86893C 5.76977 4.86893 5.71751 1.1015 5.71696 0.943109C 5.71585 0.422371 5.29443 0.00166717 4.77349 -8.48008e-08C 4.77293 -8.48008e-08 4.77238 -8.48008e-08 4.77126 -8.48008e-08C 4.25144 -8.48008e-08 3.82891 0.421259 3.82669 0.940886C 3.82557 1.1015 3.77331 4.86893 0.945691 4.86893C 0.945135 4.86893 0.94458 4.86893 0.944024 4.86893C 0.942912 4.86893 0.942354 4.86893 0.941242 4.86893L 0.94013 4.86893L 0.939575 4.86893C 0.939019 4.86893 0.937908 4.86949 0.937908 4.86893C 0.936796 4.86893 0.935686 4.86893 0.934574 4.86893C 0.934574 4.86893 0.934014 4.86893 0.933458 4.86893C 0.416414 4.8756 -2.20566e-07 5.29575 -2.20566e-07 5.81371C 0.0011117 6.33333 0.420307 6.75404 0.938463 6.75848ZM 4.77182 4.56049C 5.05314 5.03899 5.4084 5.48026 5.84983 5.83927C 5.45565 6.14216 5.08539 6.5284 4.77182 7.01246C 4.45882 6.5284 4.08799 6.14216 3.69437 5.83927C 4.1358 5.48026 4.49051 5.03899 4.77182 4.56049Z"/>
<path id="path2_fill" d="M 0.937908 6.65289C 1.23146 6.65956 3.74329 6.81906 3.74329 10.4742C 3.74329 10.9961 4.16694 11.4196 4.68898 11.4196C 5.21048 11.4196 5.63356 10.9961 5.63356 10.4742C 5.63356 6.81239 8.15374 6.659 8.43227 6.65344C 8.95377 6.65344 9.37741 6.23052 9.37741 5.70867C 9.37741 5.18682 8.95377 4.76389 8.43227 4.76389C 5.68582 4.76389 5.63468 1.0965 5.63356 0.942554C 5.63356 0.421815 5.21159 0.00166632 4.69121 -9.32809e-07C 4.69009 -9.32809e-07 4.68954 -9.32809e-07 4.68898 -9.32809e-07C 4.1686 -9.32809e-07 3.74663 0.421258 3.74329 0.940885C 3.74274 1.0965 3.69103 4.76389 0.945135 4.76389L 0.944024 4.76389C 0.942912 4.76389 0.9418 4.76389 0.9418 4.76389C 0.941244 4.76389 0.940688 4.76389 0.940132 4.76389C 0.939576 4.76389 0.938464 4.76389 0.938464 4.76389C 0.937352 4.76445 0.937352 4.76445 0.93624 4.76445C 0.93624 4.76445 0.93624 4.76445 0.935128 4.76445L 0.934572 4.76445C 0.934016 4.76445 0.934016 4.76445 0.93346 4.76445C 0.932904 4.76445 0.932904 4.76445 0.931792 4.76445C 0.93068 4.76445 0.930681 4.76445 0.930125 4.76445L 0.929568 4.76445C 0.414747 4.77223 3.13882e-07 5.19238 3.13882e-07 5.70867C 0.000556276 6.2283 0.419752 6.65011 0.937908 6.65289ZM 4.68898 4.52214C 4.95807 4.97397 5.29443 5.39078 5.71084 5.73312C 5.33835 6.02267 4.98754 6.38891 4.68898 6.84407C 4.38988 6.38891 4.03962 6.02267 3.66712 5.73312C 4.08298 5.39078 4.4199 4.97452 4.68898 4.52214Z"/>
<path id="path3_fill" d="M 0.945135 5.25851C 1.11915 5.25851 2.64805 5.32687 2.64805 7.68436C 2.64805 8.20621 3.07169 8.62914 3.59374 8.62914C 4.11523 8.62914 4.53832 8.20621 4.53832 7.68436C 4.53832 5.42246 5.96714 5.26685 6.24123 5.25851C 6.76328 5.25851 7.18692 4.83559 7.18692 4.31429C 7.18692 3.79244 6.76328 3.36896 6.24123 3.36896C 4.60503 3.36896 4.54054 1.18764 4.53832 0.941997C 4.53832 0.421814 4.1169 0.00166701 3.59707 -2.37442e-07C 3.59596 -2.37442e-07 3.59485 -2.37442e-07 3.59374 -2.37442e-07C 3.07447 -2.37442e-07 2.65249 0.420147 2.64805 0.939218C 2.64638 1.18764 2.58244 3.36896 0.945135 3.36896C 0.423087 3.36896 -1.48458e-07 3.79189 -1.48458e-07 4.31429C -1.48458e-07 4.83559 0.423087 5.25851 0.945135 5.25851ZM 3.59374 3.97473C 3.68547 4.09699 3.78499 4.21426 3.8934 4.32374C 3.78888 4.42155 3.68936 4.5277 3.59374 4.64385C 3.49756 4.5277 3.39693 4.42155 3.29296 4.32374C 3.40137 4.21426 3.50145 4.09699 3.59374 3.97473Z"/>
</defs>
</svg>
