<svg width="34" height="30" viewBox="0 0 34 30" version="1.1" xmlns="http://www.w3.org/2000/svg" xmlns:xlink="http://www.w3.org/1999/xlink">
<title>dollar</title>
<desc>Created using Figma</desc>
<g id="Canvas" transform="translate(163 -85)">
<g id="dollar">
<g id="XMLID 470">
<g id="Group">
<g id="Group">
<g id="Vector">
<use xlink:href="#path0_fill" transform="translate(-152.592 89.4318)" fill="#497393"/>
</g>
<g id="Vector">
<use xlink:href="#path1_fill" transform="translate(-163 85)" fill="#497393"/>
</g>
<g id="Vector">
<use xlink:href="#path2_fill" transform="translate(-163 108.864)" fill="#497393"/>
</g>
<g id="Vector">
<use xlink:href="#path2_fill" transform="translate(-163 112.955)" fill="#497393"/>
</g>
</g>
</g>
</g>
</g>
</g>
<defs>
<path id="path0_fill" d="M 6.59184 0C 2.9571 0 0 2.9057 0 6.47727C 0 10.0488 2.9571 12.9545 6.59184 12.9545C 10.2266 12.9545 13.1837 10.0488 13.1837 6.47727C 13.1837 2.9057 10.2266 0 6.59184 0ZM 6.59184 10.9091C 4.10491 10.9091 2.08163 8.92098 2.08163 6.47727C 2.08163 4.03357 4.10491 2.04545 6.59184 2.04545C 9.07876 2.04545 11.102 4.03357 11.102 6.47727C 11.102 8.92098 9.07876 10.9091 6.59184 10.9091Z"/>
<path id="path1_fill" d="M 0 0L 0 21.8182L 34 21.8182L 34 0L 0 0ZM 2.08163 2.04545L 6.14019 2.04545C 5.72518 4.04618 4.11775 5.62575 2.08163 6.03348L 2.08163 2.04545ZM 2.08163 19.7727L 2.08163 15.7847C 4.11775 16.1924 5.72518 17.772 6.14019 19.7727L 2.08163 19.7727ZM 31.9184 19.7727L 27.8598 19.7727C 28.2747 17.772 29.8823 16.1924 31.9184 15.7847L 31.9184 19.7727ZM 31.9184 13.7097C 28.7324 14.1595 26.2059 16.6421 25.7481 19.7727L 8.25187 19.7727C 7.79412 16.6421 5.26764 14.1595 2.08163 13.7097L 2.08163 8.10845C 5.26764 7.65866 7.79412 5.17609 8.25187 2.04545L 25.7481 2.04545C 26.2059 5.17609 28.7324 7.65866 31.9184 8.10845L 31.9184 13.7097ZM 31.9184 6.03348C 29.8823 5.62575 28.2748 4.04618 27.8598 2.04545L 31.9184 2.04545L 31.9184 6.03348Z"/>
<path id="path2_fill" d="M 34 0L 0 0L 0 2.04545L 34 2.04545L 34 0Z"/>
</defs>
</svg>
