<svg width="34" height="34" viewBox="0 0 34 34" version="1.1" xmlns="http://www.w3.org/2000/svg" xmlns:xlink="http://www.w3.org/1999/xlink">
<title>anesthesia</title>
<desc>Created using Figma</desc>
<g id="Canvas" transform="translate(-129 -191)">
<g id="anesthesia">
<g id="Group">
<g id="Group">
<g id="Vector">
<use xlink:href="#path0_fill" transform="translate(129 191)" fill="#497393"/>
</g>
</g>
</g>
</g>
</g>
<defs>
<path id="path0_fill" d="M 28.5469 6.86375L 34 1.41067L 32.5893 0L 27.1363 5.45308L 20.6318 3.33426L 4.75568 19.2104L 2.48393 16.9386L 1.07332 18.3493L 6.25368 23.5297L 2.89545 26.888L 1.41073 25.4033L 0 26.8139L 7.18609 34L 8.59675 32.5893L 7.11211 31.1047L 10.4704 27.7464L 15.6509 32.9268L 17.0616 31.5161L 14.7898 29.2444L 30.6659 13.3682L 28.5469 6.86375ZM 5.70138 29.694L 4.30605 28.2986L 7.66428 24.9404L 9.05967 26.3357L 5.70138 29.694ZM 13.3789 27.8336L 6.16635 20.6211L 9.45519 17.3322L 12.4456 20.3226L 13.8563 18.9118L 10.8659 15.9216L 13.1966 13.591L 16.1869 16.5813L 17.5976 15.1706L 14.6072 12.1803L 16.9378 9.84964L 19.9282 12.84L 21.3389 11.4292L 18.3485 8.43897L 21.1774 5.61013L 26.6177 7.38245L 28.3899 12.8228L 13.3789 27.8336Z"/>
</defs>
</svg>
