<svg width="28" height="34" viewBox="0 0 28 34" version="1.1" xmlns="http://www.w3.org/2000/svg" xmlns:xlink="http://www.w3.org/1999/xlink">
<title>protection</title>
<desc>Created using Figma</desc>
<g id="Canvas" transform="translate(-132 -83)">
<g id="protection">
<g id="Group">
<g id="Group">
<g id="Vector">
<use xlink:href="#path0_fill" transform="translate(137.475 92.0232)" fill="#497393"/>
</g>
</g>
</g>
<g id="Group">
<g id="Group">
<g id="Vector">
<use xlink:href="#path1_fill" transform="translate(132 83)" fill="#497393"/>
</g>
</g>
</g>
</g>
</g>
<defs>
<path id="path0_fill" d="M 16.0008 3.30011C 15.4884 1.81241 14.4309 0.714385 13.0997 0.287459C 10.9195 -0.411733 9.08142 0.320994 8.16701 0.829732C 7.25259 0.321127 5.41427 -0.411466 3.23435 0.287593C 1.90251 0.714651 0.844855 1.81341 0.332597 3.30204C -0.323696 5.20909 0.00328796 7.40369 1.20723 9.17248C 1.90808 10.2022 2.36543 11.362 2.52985 12.527C 2.53968 12.5965 2.54924 12.6676 2.5586 12.7402C 2.97709 15.9869 3.8498 17.6321 5.2266 17.7698C 5.28066 17.7752 5.33345 17.7779 5.38545 17.7778C 7.15046 17.7775 7.75662 14.7242 7.96161 12.8667C 8.00597 12.4644 8.08413 12.1762 8.16707 11.9714C 8.25002 12.1762 8.32817 12.4645 8.37253 12.8667C 8.58357 14.7789 9.22008 17.9581 11.1076 17.7698C 12.4843 17.632 13.3571 15.9868 13.7755 12.7404C 13.7845 12.6702 13.7938 12.6014 13.8032 12.5342C 13.9675 11.3673 14.4261 10.2034 15.1294 9.1685C 16.3317 7.39977 16.6574 5.20597 16.0008 3.30011ZM 13.4786 8.0465C 12.6044 9.33265 12.0332 10.7883 11.8267 12.2563C 11.8162 12.3308 11.8059 12.4069 11.7958 12.4849C 11.5783 14.1728 11.2574 15.0808 11.0275 15.5092C 10.8009 15.0085 10.5092 14.0302 10.3566 12.6478C 10.2597 11.7692 10.0157 11.0498 9.63166 10.5093C 9.29538 10.036 8.74793 9.75347 8.16707 9.75347C 7.58622 9.75347 7.03876 10.036 6.70255 10.5092C 6.31846 11.0498 6.07455 11.7692 5.97759 12.6478C 5.82499 14.0302 5.53327 15.0085 5.30676 15.5092C 5.07679 15.0808 4.75585 14.1727 4.5383 12.4848C 4.52788 12.4039 4.51719 12.3247 4.5063 12.2476C 4.29944 10.782 3.72921 9.33026 2.85736 8.04922C 2.00584 6.79826 1.76764 5.26633 2.22006 3.95149C 2.52546 3.06391 3.11734 2.42122 3.84389 2.18821C 5.87526 1.53689 7.48674 2.74748 7.54923 2.79529L 8.1518 3.30768L 8.7798 2.79928C 8.8474 2.74735 10.459 1.53683 12.4903 2.18821C 13.2165 2.42109 13.8082 3.06337 14.1137 3.9503C 14.5663 5.26428 14.329 6.79554 13.4786 8.0465Z"/>
<path id="path1_fill" d="M 26.4651 7.72086C 20.9123 6.7063 14.3866 0.692418 14.3213 0.631855L 13.6418 0L 12.9622 0.632055C 12.897 0.692684 6.38058 6.70471 0.81859 7.72092L -2.02656e-08 7.87047L -2.02656e-08 16.6504C -2.02656e-08 20.9133 1.57031 25.0125 4.30817 27.8967C 6.32779 30.0243 12.888 33.5914 13.1663 33.7422L 13.6418 34L 14.1174 33.7422C 14.3957 33.5914 20.9559 30.0243 22.9755 27.8967C 25.7134 25.0125 27.2837 20.9133 27.2837 16.6504L 27.2837 7.87047L 26.4651 7.72086ZM 25.2876 16.6504C 25.2876 20.4072 23.9173 24.0054 21.5278 26.5225C 20.1473 27.9768 15.7425 30.5615 13.6418 31.7264C 11.5411 30.5615 7.13635 27.9768 5.75583 26.5225C 3.3664 24.0053 1.99604 20.4072 1.99604 16.6504L 1.99604 9.50639C 6.8328 8.29129 11.8475 4.24973 13.6418 2.69855C 15.4361 4.24973 20.4509 8.29135 25.2876 9.50639L 25.2876 16.6504Z"/>
</defs>
</svg>
