<svg width="34" height="34" viewBox="0 0 34 34" version="1.1" xmlns="http://www.w3.org/2000/svg" xmlns:xlink="http://www.w3.org/1999/xlink">
<title>tasks</title>
<desc>Created using Figma</desc>
<g id="Canvas" transform="translate(163 -191)">
<g id="tasks">
<g id="XMLID 979">
<g id="Group">
<g id="Group">
<g id="Vector">
<use xlink:href="#path0_fill" transform="translate(-151.204 191)" fill="#497393"/>
</g>
<g id="Vector">
<use xlink:href="#path1_fill" transform="translate(-163 203.49)" fill="#497393"/>
</g>
</g>
</g>
</g>
</g>
</g>
<defs>
<path id="path0_fill" d="M 5.20408 10.4082C 8.07361 10.4082 10.4082 8.07361 10.4082 5.20408C 10.4082 2.33455 8.07361 0 5.20408 0C 2.33455 0 0 2.33455 0 5.20408C 0 8.07361 2.33455 10.4082 5.20408 10.4082ZM 5.20408 2.08163C 6.9258 2.08163 8.32653 3.48236 8.32653 5.20408C 8.32653 6.9258 6.9258 8.32653 5.20408 8.32653C 3.48236 8.32653 2.08163 6.9258 2.08163 5.20408C 2.08163 3.48236 3.48236 2.08163 5.20408 2.08163Z"/>
<path id="path1_fill" d="M 24.8704 13.8776L 23.8712 9.71429L 25.6735 9.71429L 25.6735 8.67347C 25.6735 3.89092 21.7826 0 17 0C 12.2174 0 8.32653 3.89092 8.32653 8.67347L 8.32653 9.71429L 10.1288 9.71429L 9.12963 13.8776L 0 13.8776L 0 21.5102L 15.9592 21.5102L 15.9592 13.8776L 11.2704 13.8776L 12.2696 9.71429L 15.9592 9.71429L 15.9592 11.7959L 18.0408 11.7959L 18.0408 9.71429L 21.7304 9.71429L 22.7296 13.8776L 18.0408 13.8776L 18.0408 21.5102L 34 21.5102L 34 13.8776L 24.8704 13.8776ZM 13.8776 15.9592L 13.8776 19.4286L 2.08163 19.4286L 2.08163 15.9592L 13.8776 15.9592ZM 15.9592 7.63265L 10.4902 7.63265C 10.9367 4.82994 13.1566 2.61203 15.9592 2.16538L 15.9592 7.63265ZM 18.0408 7.63265L 18.0408 2.16538C 20.8435 2.61203 23.0633 4.82994 23.5098 7.63265L 18.0408 7.63265ZM 31.9184 19.4286L 20.1224 19.4286L 20.1224 15.9592L 31.9184 15.9592L 31.9184 19.4286Z"/>
</defs>
</svg>
