<svg width="34" height="34" viewBox="0 0 34 34" version="1.1" xmlns="http://www.w3.org/2000/svg" xmlns:xlink="http://www.w3.org/1999/xlink">
<title>clock</title>
<desc>Created using Figma</desc>
<g id="Canvas" transform="translate(454 -83)">
<g id="clock">
<g id="XMLID 801">
<g id="Group">
<g id="Group">
<g id="Vector">
<use xlink:href="#path0_fill" transform="translate(-454 83)" fill="#497393"/>
</g>
<g id="Vector">
<use xlink:href="#path1_fill" transform="translate(-449.837 87.1633)" fill="#497393"/>
</g>
</g>
</g>
</g>
</g>
</g>
<defs>
<path id="path0_fill" d="M 29.0208 4.9792C 25.81 1.76828 21.5408 0 17 0C 12.4591 0 8.19005 1.76828 4.9792 4.9792C 1.76835 8.19011 0 12.4592 0 17C 0 21.5408 1.76828 25.81 4.9792 29.0208C 8.19011 32.2317 12.4591 34 17 34C 21.5408 34 25.81 32.2317 29.0208 29.0208C 32.2317 25.8099 34 21.5408 34 17C 34 12.4592 32.2317 8.19005 29.0208 4.9792ZM 17 31.9184C 8.77401 31.9184 2.08163 25.2261 2.08163 17C 2.08163 8.77394 8.77401 2.08163 17 2.08163C 25.2261 2.08163 31.9184 8.77394 31.9184 17C 31.9184 25.2261 25.2261 31.9184 17 31.9184Z"/>
<path id="path1_fill" d="M 12.8367 0C 5.75856 0 0 5.75849 0 12.8367C 0 19.915 5.75856 25.6735 12.8367 25.6735C 19.915 25.6735 25.6735 19.915 25.6735 12.8367C 25.6735 5.75849 19.915 0 12.8367 0ZM 21.1387 19.6668L 19.7058 18.2339L 18.2339 19.7058L 19.6668 21.1387C 18.0598 22.463 16.0633 23.3304 13.8776 23.5413L 13.8776 21.5102L 11.7959 21.5102L 11.7959 23.5413C 9.6102 23.3305 7.61364 22.4631 6.00669 21.1387L 7.43962 19.7058L 5.96769 18.2339L 4.53477 19.6668C 3.21043 18.0598 2.34302 16.0633 2.13215 13.8776L 4.16327 13.8776L 4.16327 11.7959L 2.13215 11.7959C 2.34302 9.6102 3.21043 7.61364 4.53477 6.00669L 5.96769 7.43962L 7.43962 5.96769L 6.00669 4.53477C 7.61364 3.21043 9.6102 2.34302 11.7959 2.13215L 11.7959 4.16327L 13.8776 4.16327L 13.8776 2.13215C 16.0633 2.34302 18.0598 3.21043 19.6668 4.53477L 18.2339 5.96762L 19.7058 7.43955L 21.1387 6.00669C 22.4631 7.61357 23.3305 9.6102 23.5413 11.7959L 14.6383 11.7959C 14.4556 11.4808 14.1927 11.2179 13.8776 11.0352L 13.8776 6.2449L 11.7959 6.2449L 11.7959 11.0352C 11.1743 11.3956 10.7551 12.0679 10.7551 12.8367C 10.7551 13.9845 11.6889 14.9184 12.8367 14.9184C 13.6056 14.9184 14.2778 14.4991 14.6383 13.8776L 23.5413 13.8776C 23.3305 16.0633 22.463 18.0598 21.1387 19.6668Z"/>
</defs>
</svg>
