<svg width="34" height="28" viewBox="0 0 34 28" version="1.1" xmlns="http://www.w3.org/2000/svg" xmlns:xlink="http://www.w3.org/1999/xlink">
<title>dental-care</title>
<desc>Created using Figma</desc>
<g id="Canvas" transform="translate(-420 -86)">
<g id="dental-care">
<g id="Group">
<g id="Group">
<g id="Vector">
<use xlink:href="#path0_fill" transform="translate(420 101.203)" fill="#497393"/>
</g>
</g>
</g>
<g id="Group">
<g id="Group">
<g id="Vector">
<use xlink:href="#path1_fill" transform="translate(436.477 86)" fill="#497393"/>
</g>
</g>
</g>
</g>
</g>
<defs>
<path id="path0_fill" d="M 33.8548 5.28729C 33.6164 4.51108 33.1096 3.86769 32.4277 3.47558C 31.7249 3.07139 30.9224 2.98058 30.1679 3.21999L 23.4184 5.36152L 15.7549 1.02641C 13.8535 -0.0490727 11.6947 -0.288819 9.67592 0.351806L 6.21058 1.60265L 6.21058 0.66922L 0 0.66922L 0 11.3105L 6.21051 11.3105L 6.21051 10.3803L 10.621 9.02964L 20.3892 12.7965L 31.98 9.11904C 32.7344 8.87969 33.3436 8.34107 33.6954 7.60229C 34.0366 6.88568 34.0932 6.06343 33.8548 5.28729ZM 4.22025 9.28786L 1.99026 9.28786L 1.99026 2.69182L 4.22031 2.69182L 4.22031 9.28786L 4.22025 9.28786ZM 31.9038 6.72124C 31.7942 6.95141 31.6107 7.11727 31.387 7.18826L 20.4524 10.6576L 10.6947 6.89458L 6.21058 8.26772L 6.21058 3.7489L 10.2867 2.27692C 11.7746 1.81037 13.3723 1.99348 14.7869 2.79369L 23.1965 7.55091L 30.761 5.15076C 30.9846 5.07983 31.2286 5.11004 31.4476 5.23605C 31.6877 5.37406 31.8678 5.60632 31.9549 5.89009C 32.0421 6.17372 32.0239 6.46902 31.9038 6.72124Z"/>
<path id="path1_fill" d="M 15.0061 3.16382C 14.5226 1.73775 13.5239 0.68465 12.2659 0.274669C 10.2423 -0.384766 8.53146 0.28876 7.65981 0.774251C 6.7879 0.288827 5.07674 -0.384564 3.05348 0.274669C 1.79495 0.684785 0.796 1.73849 0.312828 3.1655C -0.304152 4.98753 0.00277727 7.08362 1.13387 8.77256C 1.77967 9.73686 2.20102 10.8227 2.35243 11.913C 2.36159 11.9784 2.37036 12.0453 2.37906 12.1136C 2.77278 15.2174 3.60372 16.7912 4.91943 16.9248C 5.51244 16.9846 6.34092 16.7165 6.92556 15.0958C 7.20154 14.3307 7.41816 13.3135 7.53563 12.2319C 7.56465 11.9645 7.61001 11.7529 7.65975 11.5871C 7.70948 11.7529 7.75484 11.9645 7.78386 12.2319C 7.90133 13.3134 8.11795 14.3306 8.39393 15.0957C 8.93096 16.5848 9.67425 16.9324 10.251 16.9324C 10.302 16.9324 10.3518 16.9296 10.4 16.9248C 11.7157 16.7912 12.5467 15.2174 12.9406 12.1127C 12.9489 12.0469 12.9574 11.9826 12.9661 11.9198C 13.1173 10.8277 13.5398 9.73808 14.188 8.76891C 15.3174 7.08011 15.6232 4.98477 15.0061 3.16382ZM 12.5421 7.63194C 11.7235 8.85562 11.1887 10.241 10.9952 11.6382C 10.9854 11.7093 10.9757 11.7818 10.9665 11.855C 10.7843 13.2919 10.5232 14.1254 10.3212 14.5627C 10.1194 14.0571 9.88847 13.1741 9.7621 12.0102C 9.67073 11.1686 9.43997 10.4779 9.07613 9.9576C 8.751 9.49247 8.22148 9.2147 7.65981 9.2147C 7.09815 9.2147 6.56863 9.4924 6.2435 9.9576C 5.87966 10.478 5.6489 11.1685 5.55752 12.0101C 5.43115 13.1741 5.20019 14.0571 4.99845 14.5627C 4.79644 14.1254 4.53533 13.292 4.35311 11.8551C 4.34342 11.7783 4.33339 11.7032 4.32323 11.63C 4.12946 10.235 3.59555 8.85326 2.77929 7.63457C 1.99955 6.4703 1.78114 5.04571 2.19485 3.82379C 2.47183 3.00585 3.00633 2.41438 3.66129 2.20079C 5.48541 1.60662 6.9409 2.68426 7.04522 2.76409L 7.64879 3.27971L 8.2736 2.76456C 8.37195 2.68911 9.83037 1.6054 11.6583 2.20072C 12.3129 2.41411 12.8473 3.00525 13.1244 3.82265C 13.5384 5.04383 13.3207 6.46787 12.5421 7.63194Z"/>
</defs>
</svg>
