<svg width="29" height="34" viewBox="0 0 29 34" version="1.1" xmlns="http://www.w3.org/2000/svg" xmlns:xlink="http://www.w3.org/1999/xlink">
<title>microscope</title>
<desc>Created using Figma</desc>
<g id="Canvas" transform="translate(567 -1521)">
<g id="microscope">
<g id="XMLID 105">
<g id="Group">
<g id="Vector">
<use xlink:href="#path0_fill" transform="translate(-567 1521)" fill="#497393"/>
</g>
</g>
</g>
</g>
</g>
<defs>
<path id="path0_fill" d="M 18.2115 6.2449L 15.0793 6.2449L 15.0793 4.16327L 12.9912 4.16327L 12.9912 0L 6.72691 0L 6.72691 4.16327L 4.6388 4.16327L 4.6388 18.0408L 8.81502 18.0408L 8.81502 20.1224L 10.9031 20.1224L 10.9031 18.0408L 15.0793 18.0408L 15.0793 13.8776L 18.2115 13.8776C 19.9386 13.8776 21.3437 15.2783 21.3437 17L 21.3437 22.2041L 4.6388 22.2041L 4.6388 24.2857L 11.5992 24.2857L 11.5992 26.3673L 2.87115 26.3673L -1.29572e-07 34L 29 34L 29 17C 29.0001 11.0696 24.1604 6.2449 18.2115 6.2449ZM 8.81502 2.08163L 10.9031 2.08163L 10.9031 4.16327L 8.81502 4.16327L 8.81502 2.08163ZM 12.9912 15.9592L 6.72691 15.9592L 6.72691 6.2449L 12.9912 6.2449L 12.9912 15.9592ZM 13.6873 24.2857L 21.3437 24.2857L 21.3437 26.3673L 13.6873 26.3673L 13.6873 24.2857ZM 26.912 31.9184L 3.01328 31.9184L 4.31835 28.449L 23.4319 28.449L 23.4319 26.6425C 23.9544 26.9095 24.5455 27.0612 25.1719 27.0612C 25.7984 27.0612 26.3895 26.9095 26.912 26.6425L 26.912 31.9184L 26.912 31.9184ZM 25.1719 24.9796C 24.2124 24.9796 23.4318 24.2014 23.4318 23.2449C 23.4318 22.2884 24.2124 21.5102 25.1719 21.5102C 26.1314 21.5102 26.912 22.2884 26.912 23.2449C 26.912 24.2014 26.1314 24.9796 25.1719 24.9796ZM 26.912 19.8473C 26.3894 19.5803 25.7983 19.4286 25.1719 19.4286C 24.5454 19.4286 23.9543 19.5803 23.4318 19.8473L 23.4318 17C 23.4318 14.1305 21.0899 11.7959 18.2115 11.7959L 15.0793 11.7959L 15.0793 8.32653L 18.2115 8.32653C 23.0089 8.32653 26.912 12.2174 26.912 17L 26.912 19.8473Z"/>
</defs>
</svg>
