<svg width="38" height="38" viewBox="0 0 38 38" version="1.1" xmlns="http://www.w3.org/2000/svg" xmlns:xlink="http://www.w3.org/1999/xlink">
<title>noun_675649_cc</title>
<desc>Created using Figma</desc>
<g id="Canvas" transform="translate(-78 -3167)">
<g id="noun_675649_cc">
<g id="Group">
<g id="Vector">
<use xlink:href="#path0_fill" transform="translate(87.0021 3175.49)" fill="#497393"/>
</g>
<g id="Vector">
<use xlink:href="#path1_fill" transform="translate(95.8439 3167)" fill="#497393"/>
</g>
<g id="Vector">
<use xlink:href="#path2_fill" transform="translate(95.8439 3200.13)" fill="#497393"/>
</g>
<g id="Vector">
<use xlink:href="#path3_fill" transform="translate(111.126 3185.28)" fill="#497393"/>
</g>
<g id="Vector">
<use xlink:href="#path4_fill" transform="translate(78 3185.28)" fill="#497393"/>
</g>
<g id="Vector">
<use xlink:href="#path5_fill" transform="translate(103.33 3169.36)" fill="#497393"/>
</g>
<g id="Vector">
<use xlink:href="#path6_fill" transform="translate(86.933 3198.14)" fill="#497393"/>
</g>
<g id="Vector">
<use xlink:href="#path7_fill" transform="translate(109.044 3192.81)" fill="#497393"/>
</g>
<g id="Vector">
<use xlink:href="#path8_fill" transform="translate(80.2611 3176.41)" fill="#497393"/>
</g>
<g id="Vector">
<use xlink:href="#path9_fill" transform="translate(108.862 3175.85)" fill="#497393"/>
</g>
<g id="Vector">
<use xlink:href="#path10_fill" transform="translate(80.3674 3192.74)" fill="#497393"/>
</g>
<g id="Vector">
<use xlink:href="#path11_fill" transform="translate(103.511 3198.32)" fill="#497393"/>
</g>
<g id="Vector">
<use xlink:href="#path12_fill" transform="translate(86.617 3169.83)" fill="#497393"/>
</g>
</g>
</g>
</g>
<defs>
<path id="path0_fill" d="M 0.00550477 5.1077L 5.20814e-07 5.47104C 0.0170666 7.86909 0.587402 8.90021 1.19132 9.99079L 1.29757 10.1824C 1.94388 11.295 2.57367 12.581 2.55605 14.9598C 2.55165 18.5144 3.22108 20.3862 3.78426 21.3325C 4.36836 22.307 4.80767 22.8993 5.99789 22.8993C 7.1303 22.8993 7.79257 21.9436 7.86029 21.0232C 7.90268 20.5943 7.91093 20.1093 7.91864 19.5962C 7.93626 18.4638 7.95938 17.0556 8.39429 15.5923C 8.5666 15.0291 8.76203 14.39 9.12978 13.8367C 9.31035 13.5636 9.70947 13.2735 10.0904 13.2735C 10.1939 13.2735 10.5094 13.2735 10.8441 13.813C 11.2113 14.4043 11.437 15.0688 11.6093 15.6385C 12.0332 17.0567 12.216 18.7011 12.0998 20.0339C 12.0128 21.0221 12.2088 21.7845 12.6817 22.3004C 13.1904 22.8553 13.8141 22.8993 13.993 22.8993L 13.9936 22.8993C 15.0748 22.8993 15.5675 22.3939 16.2067 21.3314C 16.7688 20.3862 17.4382 18.5155 17.436 14.9554C 17.4206 12.581 18.0223 11.3423 18.7055 10.1631L 18.8002 9.99189C 19.4024 8.90131 19.9722 7.8713 19.9948 5.46443C 19.9948 5.38901 19.9926 5.31304 19.9904 5.23322L 19.986 5.07191C 19.921 3.32898 19.2461 2.03857 17.9149 1.1203C 16.8431 0.397473 15.3479 -3.10808e-07 13.655 -3.10808e-07C 12.3564 -3.10808e-07 10.9927 0.262597 9.99629 0.701359C 9.21236 0.354533 8.19445 0.11726 7.12204 0.03193C 7.09287 0.0297279 7.06589 0.0264245 7.03561 0.0286266L 5.31084 0.0506478C 5.27891 0.0511983 5.24808 0.0534002 5.2167 0.0567033C 3.98409 0.197636 2.89737 0.565381 2.06664 1.12526C 0.743199 2.03967 0.0688143 3.33118 0.00550477 5.1077ZM 3.12198 2.67221C 3.68681 2.29125 4.468 2.03251 5.38351 1.92241L 7.01469 1.90149C 7.8724 1.97471 8.69322 2.16573 9.27787 2.43163L 9.58781 2.56926L 11.8664 3.77985C 12.0062 3.85417 12.1565 3.8894 12.3052 3.8894C 12.6399 3.8894 12.9641 3.70883 13.132 3.39229C 13.3748 2.93591 13.2009 2.36943 12.745 2.12665L 12.4384 1.9637C 12.8496 1.90479 13.2796 1.87176 13.7068 1.87176C 14.9614 1.87176 16.1147 2.16353 16.8607 2.66671C 17.4508 3.07354 18.0619 3.68626 18.1153 5.12146L 18.123 5.45563C 18.1049 7.38024 17.7294 8.05902 17.1618 9.08629L 17.0759 9.24208C 16.3349 10.5215 15.5466 12.1246 15.5648 14.9614C 15.567 18.2546 14.9603 19.7658 14.6008 20.3697C 14.2815 20.902 14.1599 21.0061 14.1483 21.0171C 14.1455 21.0182 14.123 21.0237 14.0558 21.0259C 14.0222 20.9775 13.9149 20.771 13.9655 20.1968C 14.1037 18.6163 13.8989 16.7594 13.4034 15.1001C 13.1953 14.4098 12.9179 13.6 12.4362 12.826C 11.8664 11.9066 11.034 11.4001 10.0915 11.4001C 9.12427 11.4001 8.13499 11.9495 7.57126 12.8001C 7.05268 13.5807 6.79448 14.4269 6.60511 15.044C 6.60455 15.0462 6.58804 15.1012 6.58694 15.1029C 6.09368 16.7671 6.06835 18.319 6.04798 19.5648C 6.03973 20.0581 6.03312 20.4853 5.99623 20.8608C 5.99183 20.9136 5.97036 20.9824 5.94889 21.0254C 5.90265 21.0254 5.87182 21.0232 5.8553 21.0232C 5.84539 21.0232 5.84044 21.0243 5.84044 21.0254C 5.78483 20.9791 5.66317 20.8255 5.39232 20.3724C 5.03063 19.7647 4.42451 18.2541 4.42781 14.9675C 4.44928 12.1224 3.65929 10.5193 2.92655 9.26025L 2.82856 9.08409C 2.26098 8.05792 1.88552 7.37913 1.87176 5.46443L 1.87616 5.14073C 1.92901 3.68681 2.53954 3.07409 3.12198 2.67221Z"/>
<path id="path1_fill" d="M 0.935879 4.87318C 1.45226 4.87318 1.87176 4.45368 1.87176 3.9373L 1.87176 0.935879C 1.87176 0.418944 1.45226 1.26003e-08 0.935879 1.26003e-08C 0.419493 1.26003e-08 9.74426e-07 0.418944 9.74426e-07 0.935879L 9.74426e-07 3.9373C 9.74426e-07 4.45368 0.418943 4.87318 0.935879 4.87318Z"/>
<path id="path2_fill" d="M 0.935879 -1.98245e-06C 0.419493 -1.98245e-06 9.74426e-07 0.418394 9.74426e-07 0.93533L 9.74426e-07 3.9373C 9.74426e-07 4.45368 0.419493 4.87263 0.935879 4.87263C 1.45226 4.87263 1.87176 4.45313 1.87176 3.9373L 1.87176 0.93533C 1.87176 0.418394 1.45226 -1.98245e-06 0.935879 -1.98245e-06Z"/>
<path id="path3_fill" d="M -2.04966e-06 0.936429C -2.04966e-06 1.45337 0.418944 1.87176 0.93588 1.87176L 3.9373 1.87176C 4.45368 1.87176 4.87318 1.45337 4.87318 0.936429C 4.87318 0.419494 4.45368 -5.71215e-07 3.9373 -5.71215e-07L 0.93588 -5.71215e-07C 0.418944 -5.71215e-07 -2.04966e-06 0.419494 -2.04966e-06 0.936429Z"/>
<path id="path4_fill" d="M 3.9373 1.87176C 4.45368 1.87176 4.87318 1.45336 4.87318 0.936429C 4.87318 0.419493 4.45368 -8.73624e-07 3.9373 -8.73624e-07L 0.935879 -8.73624e-07C 0.418943 -8.73624e-07 -1.34404e-07 0.419493 -1.34404e-07 0.936429C -1.34404e-07 1.45336 0.418943 1.87176 0.935879 1.87176L 3.9373 1.87176Z"/>
<path id="path5_fill" d="M 0.472855 4.35676C 0.619293 4.44043 0.778394 4.48007 0.935842 4.48007C 1.26065 4.48007 1.57664 4.30996 1.75006 4.00773L 3.2359 1.39938C 3.49189 0.950705 3.335 0.378718 2.88632 0.123278C 2.4371 -0.133263 1.86511 0.0236343 1.60967 0.472856L 0.123277 3.08121C -0.133264 3.52988 0.0236329 4.10077 0.472855 4.35676Z"/>
<path id="path6_fill" d="M 1.60888 0.472688L 0.123033 3.07994C -0.132957 3.52916 0.0233897 4.1006 0.472612 4.35604C 0.619049 4.43972 0.778149 4.4788 0.935046 4.4788C 1.26095 4.4788 1.57695 4.30869 1.74926 4.00701L 3.23511 1.39976C 3.4911 0.950536 3.33475 0.379099 2.88553 0.123659C 2.43631 -0.133433 1.86432 0.0234663 1.60888 0.472688Z"/>
<path id="path7_fill" d="M 1.39928 0.122387C 0.949508 -0.132502 0.378622 0.0232949 0.122631 0.473067C -0.132809 0.92229 0.0235388 1.49373 0.473311 1.74917L 3.08166 3.23501C 3.2281 3.31759 3.3872 3.35778 3.5441 3.35778C 3.86945 3.35778 4.186 3.18767 4.35831 2.88488C 4.6143 2.43566 4.4574 1.86422 4.00818 1.60878L 1.39928 0.122387Z"/>
<path id="path8_fill" d="M 0.472249 1.74869L 3.0806 3.23399C 3.22704 3.31656 3.38614 3.35675 3.54303 3.35675C 3.86839 3.35675 4.18494 3.18664 4.35725 2.88386C 4.61324 2.43519 4.45634 1.8632 4.00712 1.60776L 1.39932 0.123014C 0.950098 -0.132976 0.37811 0.0233703 0.12267 0.473143C -0.13277 0.921264 0.0235771 1.49325 0.472249 1.74869Z"/>
<path id="path9_fill" d="M 0.936157 3.40235C 1.09856 3.40235 1.26261 3.36051 1.41235 3.27188L 3.99593 1.74144C 4.4402 1.47774 4.58719 0.904102 4.32404 0.458734C 4.06034 0.0144664 3.4867 -0.132522 3.04133 0.130625L 0.458856 1.66161C 0.0140384 1.92531 -0.1324 2.49895 0.130748 2.94377C 0.305262 3.23885 0.616307 3.40235 0.936157 3.40235Z"/>
<path id="path10_fill" d="M 3.04146 0.130626L 0.458982 1.66051C 0.013614 1.92421 -0.132273 2.49785 0.130874 2.94322C 0.304837 3.23775 0.61698 3.40125 0.93628 3.40125C 1.09868 3.40125 1.26329 3.35941 1.41248 3.27133L 3.99496 1.74144C 4.44032 1.47774 4.58621 0.904101 4.32306 0.458733C 4.05936 0.0144656 3.48573 -0.132521 3.04146 0.130626Z"/>
<path id="path11_fill" d="M 0.458734 0.130136C 0.0144662 0.393834 -0.132522 0.967474 0.130625 1.41284L 1.66051 3.99422C 1.83503 4.28874 2.14662 4.45335 2.46647 4.45335C 2.62887 4.45335 2.79293 4.41041 2.94267 4.32232C 3.38749 4.05863 3.53392 3.48499 3.27078 3.03962L 1.74144 0.458245C 1.47829 0.0139772 0.904102 -0.13191 0.458734 0.130136Z"/>
<path id="path12_fill" d="M 1.66064 3.99404C 1.83515 4.28856 2.14674 4.45262 2.46659 4.45262C 2.629 4.45262 2.7936 4.41023 2.94279 4.32214C 3.38761 4.05845 3.53405 3.48481 3.2709 3.03944L 1.74101 0.458613C 1.47787 0.0137949 0.903125 -0.132091 0.458858 0.130505C 0.0140399 0.394203 -0.132398 0.968393 0.130749 1.41266L 1.66064 3.99404Z"/>
</defs>
</svg>
